<svg xmlns="http://www.w3.org/2000/svg" data-name="Layer 1" viewBox="0 0 100 125" x="0px" y="0px"><title>All4</title><path d="M98.22,2.44h0a6.65,6.65,0,0,0-9.39-.33L68.11,21.4,11,5.8,0.18,16.61,45.76,42.22,23.54,62.92,8.38,61.25,0,69l15.81,9.73c0.07,0.08.12,0.17,0.19,0.25s0.2,0.17.29,0.26l8.6,16.49L33.27,88,32.67,72.59,55,51.81l22.6,47.87,11.54-10L77.45,30.87l20.44-19A6.65,6.65,0,0,0,98.22,2.44Z"/><text x="0" y="115" fill="#000000" font-size="5px" font-weight="bold" font-family="'Helvetica Neue', Helvetica, Arial-Unicode, Arial, Sans-serif">Created by i cons</text><text x="0" y="120" fill="#000000" font-size="5px" font-weight="bold" font-family="'Helvetica Neue', Helvetica, Arial-Unicode, Arial, Sans-serif">from the Noun Project</text></svg>