<svg xmlns="http://www.w3.org/2000/svg" xmlns:xlink="http://www.w3.org/1999/xlink" version="1.1" x="0px" y="0px" viewBox="0 0 128 160" enable-background="new 0 0 128 128" xml:space="preserve"><path d="M0.6,73.1l35.5,13.3l88.7-79.6L0.5,71.3C0.2,71.4,0,71.8,0,72.2S0.3,72.9,0.6,73.1z"/><path d="M52.7,121.2L68.9,97l38,15.9c0.3,0.1,0.6,0.1,0.9,0c0.3-0.1,0.5-0.4,0.5-0.7L128,8.1L58.2,91.6L52.7,121.2z"/><path d="M55.3,90.6c0-0.3,0.2-0.5,0.3-0.7l57-68.2L38.3,88.5l11.3,32.8L55.3,90.6z"/><text x="0" y="143" fill="#000000" font-size="5px" font-weight="bold" font-family="'Helvetica Neue', Helvetica, Arial-Unicode, Arial, Sans-serif">Created by Roundicons.com</text><text x="0" y="148" fill="#000000" font-size="5px" font-weight="bold" font-family="'Helvetica Neue', Helvetica, Arial-Unicode, Arial, Sans-serif">from the Noun Project</text></svg>