<svg xmlns="http://www.w3.org/2000/svg" xmlns:xlink="http://www.w3.org/1999/xlink" version="1.0" x="0px" y="0px" viewBox="0 0 100 125" enable-background="new 0 0 100 100" xml:space="preserve"><g><path d="M49.1591797,23.6259766c-0.4804688-0.2763672-1.0908203-0.1083984-1.3642578,0.3720703   c-2.3271484,4.0742188-4.0117188,8.4599609-5.0078125,13.0361328c-0.1171875,0.5400391,0.2255859,1.0722656,0.7646484,1.1904297   c0.0722656,0.015625,0.1435547,0.0224609,0.2138672,0.0224609c0.4599609,0,0.8740234-0.3193359,0.9765625-0.7871094   c0.9521484-4.3779297,2.5634766-8.5732422,4.7890625-12.4697266   C49.8056641,24.5107422,49.6386719,23.8994141,49.1591797,23.6259766z"/><path d="M43.1611328,40.5712891c-0.5556641-0.0654297-1.0458984,0.3271484-1.1103516,0.8759766   c-0.0410156,0.3476563-0.078125,0.6972656-0.1103516,1.046875c-0.0527344,0.5498047,0.3515625,1.0371094,0.9013672,1.0888672   c0.0322266,0.0039063,0.0634766,0.0048828,0.0947266,0.0048828c0.5097656,0,0.9453125-0.3886719,0.9941406-0.90625   c0.0322266-0.3339844,0.0673828-0.6679688,0.1064453-1C44.1015625,41.1328125,43.7089844,40.6357422,43.1611328,40.5712891z"/><path d="M44.8251953,48.6269531h-1.6630859c-0.5527344,0-1,0.4472656-1,1s0.4472656,1,1,1h1.6630859c0.5527344,0,1-0.4472656,1-1   S45.3779297,48.6269531,44.8251953,48.6269531z"/><path d="M56.1728516,50.6269531h1.6630859c0.5527344,0,1-0.4472656,1-1s-0.4472656-1-1-1h-1.6630859c-0.5527344,0-1,0.4472656-1,1   S55.6201172,50.6269531,56.1728516,50.6269531z"/><path d="M44.8251953,64.2207031h-1.6630859c-0.5527344,0-1,0.4472656-1,1s0.4472656,1,1,1h1.6630859c0.5527344,0,1-0.4472656,1-1   S45.3779297,64.2207031,44.8251953,64.2207031z"/><path d="M57.8359375,64.2207031h-1.6630859c-0.5527344,0-1,0.4472656-1,1s0.4472656,1,1,1h1.6630859c0.5527344,0,1-0.4472656,1-1   S58.3886719,64.2207031,57.8359375,64.2207031z"/><path d="M85.3046875,10c0-0.5527344-0.4472656-1-1-1H67.0849609H23.8564453c-0.5527344,0-1,0.4472656-1,1   c0,0.095459,0.0293579,0.1816406,0.0542603,0.269043c-0.0249023,0.0874023-0.0542603,0.173584-0.0542603,0.269043v13.9912109   c0,3.4189453,2.7822266,6.2011719,6.2021484,6.2011719c3.4189453,0,6.2011719-2.7822266,6.2011719-6.2011719V11h30.8251953   v8.6865234v0.3583984v4.8427734v4.8427734c0,0.0637817,0.0249023,0.1192627,0.0362549,0.1796875   c-0.0113525,0.0604248-0.0362549,0.1159058-0.0362549,0.1796875v9.6855469c0,0.0637817,0.0249023,0.1192627,0.0362549,0.1796875   c-0.0113525,0.0604248-0.0362549,0.1159058-0.0362549,0.1796875v9.6855469c0,0.0637817,0.0249023,0.1192627,0.0362549,0.1796875   c-0.0113525,0.0604248-0.0362549,0.1159058-0.0362549,0.1796875v9.6855469c0,0.0637817,0.0249023,0.1192627,0.0362549,0.1796875   c-0.0113525,0.0604248-0.0362549,0.1159058-0.0362549,0.1796875v9.6855469c0,0.0637817,0.0249023,0.1192627,0.0362549,0.1796875   c-0.0113525,0.0604248-0.0362549,0.1159058-0.0362549,0.1796875v8.8343506l-0.6925659-0.3314819   c0.0418091-0.2172852,0.0812378-0.4356689,0.0812378-0.656189v-2.1103516c0-1.4897461-0.9418945-2.7558594-2.2578125-3.2578125   V47.0205078c0-0.409668-0.0106201-0.8123169-0.0274658-1.1953125c0.0031128-0.0321045,0.0186768-0.0598755,0.0186768-0.0927734   c0-0.0453491-0.0198975-0.0841064-0.0257568-0.1278687c-0.260498-9.7035522-3.319397-19.0567627-8.8511963-27.0518188   l-1.5986328-2.3193359c-0.5195313-0.7509766-1.3759766-1.1992188-2.2919922-1.1992188c-0.0029297,0-0.0048828,0-0.0068359,0   c-0.9189453,0.0019531-1.7773438,0.4550781-2.296875,1.2128906L46.5068359,18.625   c-5.458252,7.993042-8.4653931,17.3310547-8.7001953,26.9816284c-0.0056763,0.0430908-0.0253906,0.0811768-0.0253906,0.1257935   c0,0.0349121,0.0163574,0.0643921,0.0198364,0.0983276c-0.0135498,0.3486328-0.0178833,0.6921997-0.0178833,1.0413208v25.8756714   c-1.3164673,0.5016479-2.2587891,1.7680054-2.2587891,3.2581177v2.1103516c0,0.2188721,0.0394287,0.4356689,0.0806274,0.6514282   l-3.9478149,1.8915405c-1.2451172,0.609375-2.0498047,1.8916016-2.0498047,3.265625V89H15.6953125c-0.5527344,0-1,0.4472656-1,1   s0.4472656,1,1,1h14.9121094h9.2802734h6.6171875h7.9785156h6.6074219h5.9941406h17.2197266c0.5527344,0,1-0.4472656,1-1   v-9.6865234c0-0.0635986-0.0248413-0.1189575-0.0361328-0.1791992c0.0112915-0.0602417,0.0361328-0.1156006,0.0361328-0.1791992   v-9.6855469c0-0.0637817-0.0248413-0.1192627-0.0361938-0.1796875c0.0113525-0.0604248,0.0361938-0.1159058,0.0361938-0.1796875   v-9.6855469c0-0.0637817-0.0248413-0.1192627-0.0361938-0.1796875c0.0113525-0.0604248,0.0361938-0.1159058,0.0361938-0.1796875   v-9.6855469c0-0.0637817-0.0248413-0.1192627-0.0361938-0.1796875c0.0113525-0.0604248,0.0361938-0.1159058,0.0361938-0.1796875   v-9.6855469c0-0.0637817-0.0248413-0.1192627-0.0361938-0.1796875c0.0113525-0.0604248,0.0361938-0.1159058,0.0361938-0.1796875   v-9.6855469c0-0.0637817-0.0248413-0.1192627-0.0361938-0.1796875c0.0113525-0.0604248,0.0361938-0.1159058,0.0361938-0.1796875   v-9.6855469c0-0.0635986-0.0248413-0.1189575-0.0361328-0.1791992c0.0112915-0.0602417,0.0361328-0.1156006,0.0361328-0.1791992V10   z M33.2597656,24.5292969c0,2.3164063-1.8847656,4.2011719-4.2011719,4.2011719   c-2.3173828,0-4.2021484-1.8847656-4.2021484-4.2011719V11.5380859h8.4033203V24.5292969z M63.4736328,76.0058594v1.8482056   l-6.8565063-3.2816772l-0.1288452-0.0616455h5.4902344C62.8027344,74.5107422,63.4736328,75.1816406,63.4736328,76.0058594z    M54.3193359,72.5107422V62.4091797h6.8964844v10.1015625H54.3193359z M48.1582031,19.7548828l1.6279297-2.3769531   c0.1494141-0.2177734,0.3867188-0.3427734,0.6513672-0.34375c0,0,0.0009766,0,0.0019531,0   c0.2626953,0,0.4990234,0.1230469,0.6464844,0.3359375l1.5986328,2.3193359   c5.1307373,7.4163818,8.0396729,16.0477905,8.4571533,25.0429688H39.8443604   C40.2375488,35.7814941,43.097168,27.1643677,48.1582031,19.7548828z M39.7832031,46.8720703   c0-0.0457153,0.0023804-0.0941162,0.0024414-0.1396484h21.4234009c0.0010376,0.0966797,0.0067749,0.1912842,0.0067749,0.2880859   v13.3886719h-6.8964844v-8.7734375c0-0.5527344-0.4472656-1-1-1h-5.640625c-0.5527344,0-1,0.4472656-1,1v8.7734375h-6.8955078   V46.8720703z M39.7832031,62.4091797h6.8955078v10.1015625h-6.8955078V62.4091797z M37.5244141,76.0058594   c0-0.8242188,0.6708984-1.4951172,1.4951172-1.4951172h5.4701538l-6.965271,3.3372803V76.0058594z M45.5048828,89h-4.6171875   v-3.9169922h4.6171875V89z M53.4833984,84.0830078V89h-5.9785156v-4.9169922v-0.7988281   c0-1.6455078,1.3388672-2.984375,2.984375-2.984375c0.7998047,0,1.5556641,0.3105469,2.1230469,0.8701172   c0.5537109,0.5537109,0.8710938,1.3242188,0.8710938,2.1142578V84.0830078z M60.0908203,89h-4.6074219v-3.9169922h4.6074219V89z    M66.0849609,89h-3.9941406v-4.9169922c0-0.5527344-0.4472656-1-1-1h-5.6275024   c-0.0515747-1.244873-0.559082-2.4492798-1.4418335-3.3320313c-0.9482422-0.9355469-2.203125-1.4511719-3.5322266-1.4511719   c-2.6791382,0-4.855835,2.130188-4.9640503,4.7832031h-5.6375122c-0.5527344,0-1,0.4472656-1,1V89h-7.2802734v-5.0751953   c0-0.6162109,0.3642578-1.1933594,0.9208984-1.4648438l4.7044067-2.2541504   c0.0065918-0.0029907,0.0136719-0.0014648,0.0202026-0.0046387l10.8583984-5.2080078   c0.3466797-0.1660156,0.5673828-0.5166016,0.5673828-0.9013672v-0.5810547v-20.875h3.640625v20.875v0.5917969   c0,0.3847656,0.2207031,0.7353516,0.5683594,0.9023438l12.9677734,6.2070313   c0.0743408,0.0354004,0.1524048,0.0415649,0.2294922,0.0576782V89z M83.3046875,89H68.0849609v-7.6865234h15.2197266V89z    M83.3046875,78.9550781H68.0849609v-7.6855469h15.2197266V78.9550781z M83.3046875,68.9101563H68.0849609v-7.6855469h15.2197266   V68.9101563z M83.3046875,58.8652344H68.0849609v-7.6855469h15.2197266V58.8652344z M83.3046875,48.8203125H68.0849609v-7.6855469   h15.2197266V48.8203125z M83.3046875,38.7753906H68.0849609v-7.6855469h15.2197266V38.7753906z M83.3046875,28.7304688H68.0849609   v-3.8427734v-3.8427734h15.2197266V28.7304688z M83.3046875,18.6865234H68.0849609V11h15.2197266V18.6865234z"/><path d="M74.0585938,15.8427734h3.2734375c0.5527344,0,1-0.4472656,1-1s-0.4472656-1-1-1h-3.2734375c-0.5527344,0-1,0.4472656-1,1   S73.5058594,15.8427734,74.0585938,15.8427734z"/><path d="M74.0585938,25.8876953h3.2734375c0.5527344,0,1-0.4472656,1-1s-0.4472656-1-1-1h-3.2734375c-0.5527344,0-1,0.4472656-1,1   S73.5058594,25.8876953,74.0585938,25.8876953z"/><path d="M74.0585938,35.9326172h3.2734375c0.5527344,0,1-0.4472656,1-1s-0.4472656-1-1-1h-3.2734375c-0.5527344,0-1,0.4472656-1,1   S73.5058594,35.9326172,74.0585938,35.9326172z"/><path d="M74.0585938,45.9775391h3.2734375c0.5527344,0,1-0.4472656,1-1s-0.4472656-1-1-1h-3.2734375c-0.5527344,0-1,0.4472656-1,1   S73.5058594,45.9775391,74.0585938,45.9775391z"/><path d="M74.0585938,56.0224609h3.2734375c0.5527344,0,1-0.4472656,1-1s-0.4472656-1-1-1h-3.2734375c-0.5527344,0-1,0.4472656-1,1   S73.5058594,56.0224609,74.0585938,56.0224609z"/><path d="M74.0585938,66.0673828h3.2734375c0.5527344,0,1-0.4472656,1-1s-0.4472656-1-1-1h-3.2734375c-0.5527344,0-1,0.4472656-1,1   S73.5058594,66.0673828,74.0585938,66.0673828z"/><path d="M74.0585938,76.1123047h3.2734375c0.5527344,0,1-0.4472656,1-1s-0.4472656-1-1-1h-3.2734375c-0.5527344,0-1,0.4472656-1,1   S73.5058594,76.1123047,74.0585938,76.1123047z"/><path d="M74.0585938,86.1572266h3.2734375c0.5527344,0,1-0.4472656,1-1s-0.4472656-1-1-1h-3.2734375c-0.5527344,0-1,0.4472656-1,1   S73.5058594,86.1572266,74.0585938,86.1572266z"/><path d="M29.0585938,25.8876953c0.5527344,0,1-0.4472656,1-1v-0.7177734c0-0.5527344-0.4472656-1-1-1s-1,0.4472656-1,1v0.7177734   C28.0585938,25.4404297,28.5058594,25.8876953,29.0585938,25.8876953z"/></g><text x="0" y="115" fill="#000000" font-size="5px" font-weight="bold" font-family="'Helvetica Neue', Helvetica, Arial-Unicode, Arial, Sans-serif">Created by Mat fine</text><text x="0" y="120" fill="#000000" font-size="5px" font-weight="bold" font-family="'Helvetica Neue', Helvetica, Arial-Unicode, Arial, Sans-serif">from the Noun Project</text></svg>